/* XPM */
static char * box_xpm[] = {
"16 16 3 1",
" 	c None",
".	c #4B2100",
"+	c #A4764F",
"................",
"...++++++++++...",
"....++++++++....",
".+...++++++...+.",
".++...++++...++.",
".+++...++...+++.",
".++++......++++.",
".+++++....+++++.",
".+++++....+++++.",
".++++......++++.",
".+++...++...+++.",
".++...++++...++.",
".+...++++++...+.",
"....++++++++....",
"...++++++++++...",
"................"};
