/* XPM */
static char * ground_xpm[] = {
"16 16 5 1",
" 	c None",
".	c #555555",
"+	c #929292",
"@	c #393737",
"#	c #111111",
".......+.....@.+",
"..@....+.@.....+",
".....@.+.......+",
"++++++++++++++++",
"...+.#.....+....",
"...+.......+.@..",
".@.+.......+....",
"++++++++++++++++",
"#......+@@.....+",
".....@.+.......+",
".......+.......+",
"++++++++++++++++",
"...+......#+....",
"...+....@..+....",
"...+.......+....",
"++++++++++++++++"};
