/* XPM */
static char * player_map_xpm[] = {
"16 16 4 1",
" 	c None",
".	c #000000",
"+	c #FFFFFF",
"@	c #605B5B",
".......++.......",
"......+@@+......",
"......+@@+......",
".....+@@@@+.....",
".....+@@@@+.....",
".....+@@@@+.....",
"....+@@@@@@+....",
"....+@@@@@@+....",
"...+@@@@@@@@+...",
"...+@@@@@@@@+...",
"...+@@@@@@@@+...",
"..+@@@@@@@@@@+..",
"..+@@@@++@@@@+..",
"..+@@++..++@@+..",
"..+@@+....+@@+..",
"...++......++..."};
