/* XPM */
static char * wall_xpm[] = {
"16 16 3 1",
" 	c None",
".	c #5B0202",
"+	c #FF0000",
".....++++++.....",
"....++++++++....",
"...++++++++++...",
"..++++++++++++..",
".++++++++++++++.",
"+++++++..+++++++",
"++++++....++++++",
"+++++..++..+++++",
"+++++..++..+++++",
"++++++....++++++",
"+++++++..+++++++",
".++++++++++++++.",
"..++++++++++++..",
"...++++++++++...",
"....++++++++....",
".....++++++....."};
